<?xml version="1.0" encoding="UTF-8" standalone="no"?>
<svg width="89px" height="102px" viewBox="0 0 89 102" version="1.1" xmlns="http://www.w3.org/2000/svg" xmlns:xlink="http://www.w3.org/1999/xlink" xmlns:sketch="http://www.bohemiancoding.com/sketch/ns">
    <!-- Generator: Sketch 3.3.3 (12081) - http://www.bohemiancoding.com/sketch -->
    <title>Logo</title>
    <desc>Created with Sketch.</desc>
    <defs></defs>
    <g id="mock1" stroke="none" stroke-width="1" fill="none" fill-rule="evenodd" sketch:type="MSPage">
        <g id="Desktop-Copy" sketch:type="MSArtboardGroup" transform="translate(-60.000000, -46.000000)">
            <g id="nav" sketch:type="MSLayerGroup" transform="translate(39.000000, 47.000000)">
                <g id="Logo" transform="translate(22.000000, 0.000000)" sketch:type="MSShapeGroup">
                    <polygon id="Polygon-1" stroke="#505050" stroke-width="1.00149068" points="43.5 0 86.5538344 25 86.5538344 75 43.5 100 0.44616564 75 0.44616564 25 "></polygon>
                    <path d="M32.3928845,62.7053712 C31.0468743,62.7053712 29.7910175,62.3688737 28.6252766,61.6958686 C27.4595356,61.0228635 26.5521941,60.0374066 25.9032249,58.7394681 L26.8406202,58.0905022 C27.5376612,59.3163329 28.3849138,60.2116566 29.3824035,60.7765002 C30.3798932,61.3413438 31.3833768,61.6237613 32.3928845,61.6237613 C34.5080434,61.6237613 36.0282911,61.070944 36.9536731,59.9652927 C37.8790551,58.8596415 38.3417392,57.177154 38.3417392,54.9177797 L38.3417392,39.4147039 L27.8501228,39.4147039 L27.8501228,38.441255 L39.4954564,38.441255 L39.4954564,55.0259407 C39.4954564,56.0835201 39.3752787,57.0809949 39.1349198,58.0183949 C38.8945608,58.9557948 38.4979745,59.773003 37.9451488,60.470044 C37.3923232,61.167085 36.6652483,61.7138935 35.7639021,62.1104858 C34.862556,62.5070781 33.7388947,62.7053712 32.3928845,62.7053712 L32.3928845,62.7053712 Z M49.6265362,62.2727273 L49.6265362,38.4773086 L50.7081461,38.4773086 L50.7081461,61.2632247 L63.3990361,61.2632247 L63.3990361,62.2727273 L49.6265362,62.2727273 Z" id="JL" fill="#505050"></path>
                </g>
            </g>
        </g>
    </g>
</svg>